<?xml version="1.0" standalone="no"?>
<!DOCTYPE svg PUBLIC "-//W3C//DTD SVG 20010904//EN"
 "http://www.w3.org/TR/2001/REC-SVG-20010904/DTD/svg10.dtd">
<svg version="1.0" xmlns="http://www.w3.org/2000/svg"
 width="1254.000000pt" height="1254.000000pt" viewBox="0 0 1254.000000 1254.000000"
 preserveAspectRatio="xMidYMid meet">

<g transform="translate(0.000000,1254.000000) scale(0.100000,-0.100000)"
fill="#000000" stroke="none">
<path d="M6156 10598 c-14 -35 -36 -90 -49 -123 l-23 -60 -55 -7 c-30 -3 -87
-6 -126 -7 -55 -1 -73 -4 -73 -15 0 -8 43 -48 95 -90 52 -42 95 -80 95 -84 0
-4 -14 -56 -30 -117 -33 -123 -35 -135 -19 -135 6 0 57 31 114 69 l102 69 107
-69 c59 -38 111 -69 116 -69 15 0 13 15 -20 135 -16 61 -30 113 -30 117 0 3
42 41 93 84 50 42 93 83 95 91 3 9 -10 13 -45 13 -26 0 -85 3 -130 6 l-81 7
-47 123 c-26 68 -51 124 -55 124 -4 0 -19 -28 -34 -62z"/>
<path d="M8527 10083 c-2 -4 -14 -40 -25 -79 -21 -68 -23 -72 -64 -87 -24 -9
-56 -19 -71 -23 -41 -10 -28 -25 40 -48 34 -12 65 -24 69 -28 3 -4 17 -38 29
-75 12 -37 26 -68 30 -68 5 0 16 25 25 55 26 85 34 96 93 115 29 9 60 21 68
27 16 11 17 11 -76 43 l-59 20 -23 74 c-23 77 -28 87 -36 74z"/>
<path d="M6328 9815 c-3 -4 37 -111 89 -238 52 -128 133 -329 180 -447 47
-118 89 -219 94 -224 4 -4 12 -5 17 -2 7 4 -37 124 -110 304 -67 163 -149 366
-183 451 -57 144 -72 171 -87 156z"/>
<path d="M9696 8838 c-8 -29 -25 -89 -36 -133 -12 -44 -25 -84 -30 -88 -6 -6
-235 -46 -272 -47 -25 -1 5 -28 107 -96 63 -42 115 -82 115 -88 0 -6 -9 -63
-20 -126 -23 -134 -24 -140 -9 -140 6 0 53 33 105 73 53 39 101 76 108 81 9 6
54 -13 139 -58 69 -37 128 -63 131 -58 2 4 -16 68 -41 141 l-46 132 96 91 c54
49 97 96 97 104 0 11 -24 13 -139 7 l-140 -6 -63 128 c-35 71 -68 130 -75 132
-6 3 -18 -18 -27 -49z"/>
<path d="M4876 8718 c-10 -34 -22 -68 -27 -74 -5 -6 -39 -20 -74 -30 -36 -10
-65 -22 -65 -26 0 -3 24 -14 53 -23 82 -27 93 -37 112 -110 10 -36 23 -64 28
-62 6 2 20 32 32 68 23 68 30 75 130 115 l40 17 -65 19 c-36 11 -69 24 -75 29
-5 6 -19 38 -31 71 -11 34 -25 63 -30 65 -6 2 -18 -25 -28 -59z"/>
<path d="M6794 8633 l-29 -88 -77 -25 c-43 -14 -78 -28 -78 -32 0 -4 35 -17
78 -30 l77 -24 29 -82 c15 -45 31 -82 35 -82 4 0 17 33 30 73 13 39 28 77 33
84 5 7 40 22 76 34 37 12 71 25 75 29 5 5 -17 15 -50 24 -111 32 -108 30 -133
114 -12 42 -26 81 -30 85 -3 4 -20 -32 -36 -80z"/>
<path d="M3427 8514 c-7 -16 -24 -60 -37 -97 -27 -76 -21 -72 -142 -82 -43 -4
-80 -10 -82 -14 -3 -4 29 -33 70 -64 41 -32 74 -64 74 -73 0 -8 -10 -53 -21
-100 -12 -46 -19 -87 -15 -91 3 -3 44 19 91 50 l85 57 85 -55 c47 -31 90 -53
94 -50 5 3 -1 38 -14 77 -41 132 -44 118 40 188 41 34 73 66 70 70 -2 4 -49
11 -103 14 l-99 7 -33 87 c-18 48 -36 91 -40 96 -5 4 -15 -5 -23 -20z"/>
<path d="M4235 8355 c-176 -57 -338 -110 -359 -117 -38 -13 -61 -38 -34 -38
30 0 742 237 746 248 2 7 -5 12 -15 11 -10 0 -162 -47 -338 -104z"/>
<path d="M9606 7981 c-15 -24 -336 -942 -336 -961 0 -6 6 -10 13 -8 17 6 350
959 338 971 -5 5 -11 5 -15 -2z"/>
<path d="M9950 7981 c0 -8 70 -333 181 -836 22 -99 48 -220 59 -270 10 -49 51
-234 90 -410 66 -297 140 -641 140 -651 0 -2 7 -4 15 -4 8 0 15 6 15 13 0 7
-23 117 -50 243 -69 313 -201 912 -315 1434 -53 239 -99 447 -102 463 -5 24
-33 40 -33 18z"/>
<path d="M2893 7588 c-579 -765 -581 -768 -554 -768 4 0 80 96 169 213 88 116
266 353 397 526 155 205 234 316 227 323 -6 6 -89 -95 -239 -294z"/>
<path d="M6307 7833 c-5 -8 -338 -926 -422 -1163 -27 -74 -53 -141 -58 -147
-7 -10 -129 -13 -541 -14 -292 -1 -614 -4 -716 -8 -248 -8 -248 -5 -18 -178
95 -72 308 -233 473 -358 165 -125 342 -259 393 -297 50 -39 92 -76 92 -82 0
-18 -38 -148 -230 -795 -100 -337 -184 -628 -187 -645 -3 -22 0 -36 11 -45 14
-12 22 -9 59 14 57 38 562 392 877 615 140 99 265 185 277 191 24 13 -5 31
408 -260 670 -473 816 -571 836 -560 10 5 19 18 19 28 0 10 -23 96 -51 192
-28 96 -60 201 -69 234 -10 33 -66 222 -125 420 -151 510 -175 592 -175 609 0
8 183 155 408 327 576 443 713 550 719 566 3 7 0 20 -7 28 -11 13 -111 15
-732 17 l-720 3 -238 655 c-201 555 -241 655 -258 658 -11 2 -22 -1 -25 -5z"/>
<path d="M9100 6853 l-25 -78 -63 -22 c-35 -12 -66 -24 -69 -27 -6 -6 12 -14
89 -42 46 -16 48 -18 70 -86 13 -38 28 -70 33 -70 6 0 19 30 30 66 11 36 25
69 30 74 6 5 38 19 73 32 34 12 62 26 62 29 0 4 -24 13 -52 21 -90 22 -94 26
-118 106 -12 41 -25 74 -28 74 -4 0 -18 -35 -32 -77z"/>
<path d="M2090 6618 c-43 -149 -36 -140 -141 -171 -52 -15 -101 -30 -109 -33
-9 -4 31 -22 95 -43 l110 -36 35 -107 c19 -59 37 -108 40 -108 3 0 21 48 40
108 l35 107 108 35 c59 19 107 37 107 41 0 3 -39 16 -87 29 -136 36 -130 30
-165 147 -18 57 -35 103 -39 103 -4 0 -17 -33 -29 -72z"/>
<path d="M2240 5942 c0 -10 13 -65 29 -123 30 -107 141 -511 161 -586 7 -27
16 -43 26 -43 10 0 14 6 10 18 -3 9 -46 168 -96 352 -50 184 -95 350 -101 368
-11 35 -29 43 -29 14z"/>
<path d="M10448 5563 c-27 -74 -36 -80 -120 -82 -26 -1 -49 -5 -52 -10 -3 -5
19 -28 49 -51 30 -23 55 -49 55 -57 0 -8 -7 -42 -16 -75 -8 -33 -13 -63 -10
-66 3 -2 34 14 68 36 55 37 65 40 83 28 56 -36 115 -67 115 -61 0 4 -8 39 -17
78 l-17 70 53 49 c29 27 51 51 49 53 -2 3 -36 7 -76 11 l-71 7 -27 68 c-14 38
-29 69 -33 69 -5 0 -19 -30 -33 -67z"/>
<path d="M2535 5058 c-3 -7 -13 -38 -23 -68 l-19 -55 -59 -8 c-92 -12 -93 -14
-30 -60 55 -40 57 -44 52 -77 -4 -19 -9 -55 -13 -79 l-6 -44 62 44 62 44 61
-33 c33 -19 62 -31 66 -28 3 4 -4 36 -15 72 l-21 65 49 46 c27 25 49 49 49 54
0 4 -32 9 -72 11 l-72 3 -25 62 c-26 62 -37 75 -46 51z"/>
<path d="M8589 4930 c-12 -38 -27 -74 -33 -79 -6 -4 -36 -16 -66 -26 -30 -10
-59 -21 -63 -25 -5 -4 24 -19 64 -32 l73 -24 25 -77 c14 -42 28 -77 32 -77 4
0 17 34 30 76 l24 77 73 25 c39 14 72 29 72 32 0 4 -33 17 -73 28 l-74 22 -22
75 c-13 41 -26 75 -31 75 -5 0 -19 -31 -31 -70z"/>
<path d="M3387 3500 c-4 -8 -13 -40 -22 -70 -8 -30 -19 -60 -23 -66 -4 -6 -37
-21 -74 -34 -37 -13 -65 -26 -63 -30 2 -4 31 -15 65 -25 33 -10 64 -23 69 -29
4 -6 18 -41 31 -79 12 -37 25 -65 30 -62 4 3 16 34 25 70 10 36 23 69 29 73 6
5 39 19 74 32 34 12 61 24 59 26 -2 3 -35 15 -72 27 l-69 23 -21 65 c-32 98
-32 97 -38 79z"/>
<path d="M8900 3328 c-17 -46 -36 -95 -41 -109 -10 -26 -14 -27 -120 -34 -60
-3 -111 -10 -113 -14 -3 -4 29 -33 69 -65 41 -32 79 -64 85 -71 8 -10 4 -41
-14 -117 -14 -56 -26 -106 -26 -110 0 -17 25 -5 111 52 l89 61 96 -62 c52 -34
98 -59 101 -55 3 3 -6 52 -21 108 -14 57 -26 106 -26 109 0 3 36 36 80 73 44
38 80 71 80 76 0 4 -50 11 -111 16 l-111 9 -40 108 c-22 59 -44 107 -48 107
-5 0 -23 -37 -40 -82z"/>
<path d="M10109 3248 c-14 -51 -16 -53 -67 -72 -28 -10 -52 -22 -52 -26 0 -5
15 -11 33 -15 55 -12 74 -30 87 -84 7 -28 16 -51 20 -51 5 0 17 26 27 57 19
55 22 58 66 72 26 8 47 18 47 22 0 4 -22 15 -50 24 -47 16 -50 19 -67 71 -9
30 -20 54 -23 54 -4 0 -13 -24 -21 -52z"/>
<path d="M9607 3090 c-150 -16 -262 -31 -269 -38 -9 -9 2 -12 48 -12 77 1 482
45 491 54 20 20 -37 19 -270 -4z"/>
<path d="M3730 3098 c1 -14 691 -521 717 -526 9 -3 14 1 11 10 -5 14 -705 528
-719 528 -5 0 -9 -6 -9 -12z"/>
<path d="M8110 2485 c-266 -200 -486 -368 -488 -374 -2 -6 1 -11 6 -11 19 0
992 726 992 740 0 5 -6 10 -12 9 -7 0 -231 -164 -498 -364z"/>
<path d="M4826 2712 c-2 -4 -16 -52 -29 -106 -14 -54 -28 -100 -30 -103 -3 -2
-51 -12 -106 -21 -56 -9 -101 -19 -101 -22 0 -4 38 -32 85 -64 73 -48 85 -60
85 -84 0 -26 -13 -113 -25 -169 -8 -36 13 -28 89 35 39 32 76 61 83 65 6 4 54
-14 107 -40 52 -26 98 -45 101 -41 3 3 -10 48 -29 99 -20 52 -36 98 -36 102 0
5 31 43 69 85 39 42 67 80 65 84 -5 8 -61 5 -170 -8 l-40 -5 -53 101 c-29 55
-54 100 -56 100 -2 0 -6 -4 -9 -8z"/>
<path d="M5295 2240 c-4 -6 -5 -13 -4 -15 2 -2 108 -37 234 -78 399 -131 929
-304 953 -311 16 -5 22 -3 22 8 0 14 -110 52 -1065 363 -60 20 -115 38 -121
40 -7 2 -15 -1 -19 -7z"/>
<path d="M6921 2059 c-37 -113 -33 -110 -164 -144 -37 -10 -64 -21 -60 -26 4
-4 48 -19 96 -33 86 -26 89 -28 106 -69 10 -23 26 -68 35 -99 16 -56 36 -77
36 -40 0 9 13 53 28 97 l28 80 97 30 c53 16 97 33 97 37 0 3 -44 20 -98 37
l-98 30 -29 93 c-16 51 -32 96 -35 100 -3 4 -21 -38 -39 -93z"/>
</g>
</svg>
